<svg width="500" height="373" viewBox="0 0 500 373" fill="none" xmlns="http://www.w3.org/2000/svg">
<path d="M500 327.4H0V327.65H500V327.4Z" fill="#EBEBEB"/>
<path d="M449.9 343.49H416.78V343.74H449.9V343.49Z" fill="#EBEBEB"/>
<path d="M331.22 346.21H322.53V346.46H331.22V346.21Z" fill="#EBEBEB"/>
<path d="M415.78 334.21H396.59V334.46H415.78V334.21Z" fill="#EBEBEB"/>
<path d="M95.65 335.89H52.46V336.14H95.65V335.89Z" fill="#EBEBEB"/>
<path d="M110.89 335.89H104.56V336.14H110.89V335.89Z" fill="#EBEBEB"/>
<path d="M225.15 340.11H131.47V340.36H225.15V340.11Z" fill="#EBEBEB"/>
<path d="M237 282.8H43.91C42.3974 282.797 40.9476 282.195 39.8789 281.124C38.8102 280.054 38.21 278.603 38.21 277.09V5.66C38.2232 4.15603 38.8292 2.71798 39.8965 1.65822C40.9637 0.598458 42.406 0.00257639 43.91 0H237C238.514 0 239.967 0.601588 241.038 1.67242C242.108 2.74325 242.71 4.19561 242.71 5.71V277.09C242.71 278.604 242.108 280.057 241.038 281.128C239.967 282.198 238.514 282.8 237 282.8V282.8ZM43.91 0.200001C42.4637 0.20265 41.0775 0.779065 40.0557 1.80273C39.0339 2.82639 38.46 4.21365 38.46 5.66V277.09C38.46 278.536 39.0339 279.924 40.0557 280.947C41.0775 281.971 42.4637 282.547 43.91 282.55H237C238.447 282.547 239.835 281.971 240.858 280.948C241.881 279.924 242.457 278.537 242.46 277.09V5.66C242.457 4.21273 241.881 2.82549 240.858 1.80212C239.835 0.77874 238.447 0.202644 237 0.200001H43.91Z" fill="#EBEBEB"/>
<path d="M453.31 282.8H260.21C258.696 282.797 257.246 282.195 256.175 281.125C255.105 280.054 254.503 278.604 254.5 277.09V5.66C254.516 4.15511 255.124 2.71708 256.193 1.65759C257.262 0.598109 258.705 0.00254829 260.21 0H453.31C454.812 0.0052045 456.252 0.602249 457.317 1.66173C458.382 2.72121 458.987 4.15775 459 5.66V277.09C459 278.601 458.401 280.05 457.335 281.121C456.268 282.191 454.821 282.795 453.31 282.8V282.8ZM260.21 0.200001C258.763 0.202644 257.375 0.77874 256.352 1.80212C255.329 2.82549 254.753 4.21273 254.75 5.66V277.09C254.753 278.537 255.329 279.924 256.352 280.948C257.375 281.971 258.763 282.547 260.21 282.55H453.31C454.757 282.547 456.145 281.971 457.168 280.948C458.191 279.924 458.767 278.537 458.77 277.09V5.66C458.767 4.21273 458.191 2.82549 457.168 1.80212C456.145 0.77874 454.757 0.202644 453.31 0.200001H260.21Z" fill="#EBEBEB"/>
<path d="M197.23 98.1H66.79V104.8H197.23V98.1Z" fill="#E0E0E0"/>
<path d="M78.54 73.39H72.79V98.09H78.54V73.39Z" fill="#EBEBEB"/>
<path d="M106.33 73.39H100.58V98.09H106.33V73.39Z" fill="#EBEBEB"/>
<path d="M137.873 72.7756L132.207 73.7523L136.403 98.0934L142.069 97.1166L137.873 72.7756Z" fill="#EBEBEB"/>
<path d="M85.66 76.65H79.91V98.1H85.66V76.65Z" fill="#EBEBEB"/>
<path d="M98.87 76.65H93.12V98.1H98.87V76.65Z" fill="#EBEBEB"/>
<path d="M132.21 76.65H126.46V98.1H132.21V76.65Z" fill="#EBEBEB"/>
<path d="M113.882 75.8984L108.269 77.1459L112.923 98.085L118.536 96.8375L113.882 75.8984Z" fill="#EBEBEB"/>
<path d="M90.62 72.17H87.75V98.1001H90.62V72.17Z" fill="#EBEBEB"/>
<path d="M124.8 72.17H121.93V98.1001H124.8V72.17Z" fill="#EBEBEB"/>
<path d="M184.71 78.55H156.71V97.8801H184.71V78.55Z" fill="#EBEBEB"/>
<path d="M66.78 154.83L197.22 154.83V148.13L66.78 148.13V154.83Z" fill="#E0E0E0"/>
<path d="M185.47 148.13H191.22V123.43H185.47V148.13Z" fill="#EBEBEB"/>
<path d="M157.68 148.13H163.43V123.43H157.68V148.13Z" fill="#EBEBEB"/>
<path d="M121.952 147.149L127.619 148.125L131.814 123.784L126.148 122.807L121.952 147.149Z" fill="#EBEBEB"/>
<path d="M178.35 148.13H184.1V126.68H178.35V148.13Z" fill="#EBEBEB"/>
<path d="M165.14 148.13H170.89V126.68H165.14V148.13Z" fill="#EBEBEB"/>
<path d="M131.8 148.13H137.55V126.68H131.8V148.13Z" fill="#EBEBEB"/>
<path d="M145.491 146.876L151.104 148.124L155.758 127.185L150.145 125.937L145.491 146.876Z" fill="#EBEBEB"/>
<path d="M173.39 148.13H176.26V122.2H173.39V148.13Z" fill="#EBEBEB"/>
<path d="M139.2 148.13H142.07V122.2H139.2V148.13Z" fill="#EBEBEB"/>
<path d="M79.31 147.91H107.31V128.58H79.31V147.91Z" fill="#EBEBEB"/>
<path d="M429.98 40.7H270.66C269.489 40.7 268.54 41.6491 268.54 42.82V45.09C268.54 46.2608 269.489 47.21 270.66 47.21H429.98C431.151 47.21 432.1 46.2608 432.1 45.09V42.82C432.1 41.6491 431.151 40.7 429.98 40.7Z" fill="#E0E0E0"/>
<path d="M422.38 45.88H278.25V173.78H422.38V45.88Z" fill="#E6E6E6"/>
<path d="M418.59 49.39H281.86V170.34H418.59V49.39Z" fill="#F0F0F0"/>
<path d="M313.95 49.39L281.86 170.07V113.36L298.8 49.39H313.95Z" fill="white"/>
<path d="M325.31 49.39L292.94 170.34H287.78L320.15 49.39H325.31Z" fill="white"/>
<path d="M418.59 125.71V145.03L412.04 170.34H406.87L418.59 125.71Z" fill="white"/>
<path d="M329.55 47.21H327.25V173.04H329.55V47.21Z" fill="#E6E6E6"/>
<path d="M374.18 47.21H371.88V173.04H374.18V47.21Z" fill="#E6E6E6"/>
<path d="M398.89 42.78C398.89 42.78 402.21 86.05 421.28 108.1C421.28 108.1 407.39 163.79 407.4 183.21L433.21 178.44L423.91 108.44L428.36 42.79L398.89 42.78Z" fill="#E0E0E0"/>
<path d="M301.74 42.78C301.74 42.78 298.43 86.05 279.36 108.1C279.36 108.1 293.25 163.79 293.24 183.21L267.42 178.44L276.73 108.44L272.28 42.79L301.74 42.78Z" fill="#E0E0E0"/>
<path d="M137.106 50.09C149.028 47.2762 156.411 35.3303 153.598 23.4082C150.784 11.4861 138.838 4.10239 126.916 6.91626C114.994 9.73014 107.61 21.676 110.424 33.5981C113.238 45.5202 125.184 52.9039 137.106 50.09Z" fill="#E0E0E0"/>
<path d="M135.035 47.1062C145.317 45.4373 152.299 35.7495 150.63 25.468C148.961 15.1865 139.273 8.2046 128.991 9.87353C118.71 11.5425 111.728 21.2302 113.397 31.5117C115.066 41.7932 124.754 48.7751 135.035 47.1062Z" fill="#F0F0F0"/>
<path d="M132.9 15.5601V28.7401L141.63 23.8001" fill="#F0F0F0"/>
<path d="M132.9 15.5601V28.7401L141.63 23.8001" stroke="#E0E0E0" stroke-width="2" stroke-linecap="round" stroke-linejoin="round"/>
<path d="M250 372.56C357.082 372.56 443.89 367.492 443.89 361.24C443.89 354.988 357.082 349.92 250 349.92C142.917 349.92 56.11 354.988 56.11 361.24C56.11 367.492 142.917 372.56 250 372.56Z" fill="#F5F5F5"/>
<path d="M81.16 329.85C81.01 328.85 77.51 304.68 84.52 296.34C85.2177 295.461 86.1015 294.748 87.1079 294.252C88.1142 293.755 89.2181 293.488 90.34 293.47C104.5 293.14 106.43 304.47 106.45 304.62L104.78 304.88C104.72 304.47 103.04 294.88 90.38 295.16C89.4974 295.174 88.629 295.386 87.8384 295.778C87.0478 296.171 86.3548 296.735 85.81 297.43C79.29 305.19 82.81 329.36 82.81 329.6L81.16 329.85Z" fill="#407BFF"/>
<path d="M80.31 328.75L78.62 328.7C78.62 328.47 79.18 306.45 68.33 301.89C57.69 297.44 52.9 306.6 52.71 306.99L51.2 306.23C51.2 306.12 56.87 295.23 68.98 300.34C80.9 305.34 80.34 327.79 80.31 328.75Z" fill="#407BFF"/>
<path d="M80.36 330.48C80.36 330.13 80.25 295.29 73.46 285.1C66.94 275.32 56.46 279.92 55.97 280.1L55.28 278.57C55.4 278.51 67.54 273.15 74.87 284.14C81.94 294.77 82 329 82 330.48H80.36Z" fill="#407BFF"/>
<path d="M92.37 294.31C92.37 294.31 86.19 296.59 88 302C89.81 307.41 109.4 316.2 109.4 316.2C109.4 316.2 117.59 308.69 110.07 296.5C102.55 284.31 92.54 290.46 92.37 294.31Z" fill="#407BFF"/>
<path d="M73.16 283.26C73.16 283.26 77.54 282.79 77.16 280.12C76.78 277.45 60.1 270.57 50.25 281.69C50.25 281.69 56.56 292.53 65.68 292.69C74.8 292.85 73.16 283.26 73.16 283.26Z" fill="#407BFF"/>
<path d="M68.65 301.12C68.65 301.12 71.65 298.67 68.41 297.48C65.17 296.29 49.11 296.62 48.95 312.48C48.95 312.48 67.62 315.58 69.95 309.53C72.28 303.48 68.65 301.12 68.65 301.12Z" fill="#407BFF"/>
<path opacity="0.2" d="M92.37 294.31C92.37 294.31 86.19 296.59 88 302C89.81 307.41 109.4 316.2 109.4 316.2C109.4 316.2 117.59 308.69 110.07 296.5C102.55 284.31 92.54 290.46 92.37 294.31Z" fill="white"/>
<path opacity="0.2" d="M73.16 283.26C73.16 283.26 77.54 282.79 77.16 280.12C76.78 277.45 60.1 270.57 50.25 281.69C50.25 281.69 56.56 292.53 65.68 292.69C74.8 292.85 73.16 283.26 73.16 283.26Z" fill="white"/>
<path opacity="0.2" d="M68.65 301.12C68.65 301.12 71.65 298.67 68.41 297.48C65.17 296.29 49.11 296.62 48.95 312.48C48.95 312.48 67.62 315.58 69.95 309.53C72.28 303.48 68.65 301.12 68.65 301.12Z" fill="white"/>
<path d="M95.69 362.2H66.71L63.59 330.48H98.81L95.69 362.2Z" fill="#407BFF"/>
<path opacity="0.5" d="M95.69 362.2H66.71L63.59 330.48H98.81L95.69 362.2Z" fill="white"/>
<path d="M100.36 326.98H62.04V333.98H100.36V326.98Z" fill="#407BFF"/>
<path opacity="0.2" d="M100.36 326.98H62.04V333.98H100.36V326.98Z" fill="white"/>
<path d="M392.56 206H294.1C292.94 205.999 291.79 206.226 290.718 206.669C289.645 207.112 288.671 207.763 287.85 208.583C287.029 209.403 286.377 210.377 285.933 211.449C285.489 212.521 285.26 213.67 285.26 214.83L273.26 291.3H389.38L401.38 214.83C401.38 212.49 400.451 210.245 398.797 208.59C397.144 206.934 394.9 206.003 392.56 206Z" fill="#407BFF"/>
<path opacity="0.4" d="M392.56 206H294.1C292.94 205.999 291.79 206.226 290.718 206.669C289.645 207.112 288.671 207.763 287.85 208.583C287.029 209.403 286.377 210.377 285.933 211.449C285.489 212.521 285.26 213.67 285.26 214.83L273.26 291.3H389.38L401.38 214.83C401.38 212.49 400.451 210.245 398.797 208.59C397.144 206.934 394.9 206.003 392.56 206Z" fill="white"/>
<path opacity="0.2" d="M371.72 292.46H389.38L401.38 214.86C401.38 212.518 400.45 210.272 398.794 208.616C397.138 206.96 394.892 206.03 392.55 206.03V206.03C390.208 206.03 387.962 206.96 386.306 208.616C384.65 210.272 383.72 212.518 383.72 214.86L371.72 292.46Z" fill="black"/>
<path d="M269.58 255.6H227.72H227.27C224.413 255.6 221.672 256.734 219.651 258.754C217.63 260.773 216.493 263.513 216.49 266.37V362.2H279.72V266.35C279.759 263.591 278.722 260.926 276.829 258.919C274.936 256.913 272.336 255.722 269.58 255.6V255.6Z" fill="#407BFF"/>
<path opacity="0.5" d="M269.58 255.6H227.72H227.27C224.413 255.6 221.672 256.734 219.651 258.754C217.63 260.773 216.493 263.513 216.49 266.37V362.2H279.72V266.35C279.759 263.591 278.722 260.926 276.829 258.919C274.936 256.913 272.336 255.722 269.58 255.6V255.6Z" fill="white"/>
<path opacity="0.6" d="M227.27 255.58C224.413 255.58 221.672 256.714 219.651 258.734C217.63 260.753 216.493 263.493 216.49 266.35V362.2H238.05V266.35C238.047 263.493 236.91 260.753 234.889 258.734C232.868 256.714 230.127 255.58 227.27 255.58V255.58Z" fill="white"/>
<path d="M327.5 282.7H245.09V362.2H327.5V282.7Z" fill="#407BFF"/>
<path opacity="0.4" d="M327.5 282.7H245.09V362.2H327.5V282.7Z" fill="white"/>
<path d="M251.1 276H345.1V298.7H251.1C248.087 298.7 245.198 297.503 243.067 295.373C240.937 293.242 239.74 290.353 239.74 287.34C239.745 284.331 240.944 281.446 243.074 279.32C245.204 277.194 248.091 276 251.1 276V276Z" fill="#407BFF"/>
<path opacity="0.6" d="M251.1 276H345.1V298.7H251.1C248.087 298.7 245.198 297.503 243.067 295.373C240.937 293.242 239.74 290.353 239.74 287.34C239.745 284.331 240.944 281.446 243.074 279.32C245.204 277.194 248.091 276 251.1 276V276Z" fill="white"/>
<path d="M380.58 255.6H338.72H338.27C335.413 255.6 332.672 256.734 330.651 258.754C328.63 260.773 327.493 263.513 327.49 266.37V362.2H390.72V266.35C390.759 263.591 389.722 260.926 387.829 258.919C385.936 256.913 383.336 255.722 380.58 255.6V255.6Z" fill="#407BFF"/>
<path opacity="0.5" d="M380.58 255.6H338.72H338.27C335.413 255.6 332.672 256.734 330.651 258.754C328.63 260.773 327.493 263.513 327.49 266.37V362.2H390.72V266.35C390.759 263.591 389.722 260.926 387.829 258.919C385.936 256.913 383.336 255.722 380.58 255.6V255.6Z" fill="white"/>
<path opacity="0.6" d="M338.27 255.58C335.413 255.58 332.672 256.714 330.651 258.734C328.63 260.753 327.493 263.493 327.49 266.35V362.2H349.05V266.35C349.047 263.493 347.91 260.753 345.889 258.734C343.868 256.714 341.127 255.58 338.27 255.58Z" fill="white"/>
<path d="M438.57 259.23H364.27V362.2H438.57V259.23Z" fill="#407BFF"/>
<path opacity="0.2" d="M438.58 259.23H415.78V362.2H438.58V259.23Z" fill="black"/>
<path opacity="0.2" d="M410.7 262.91H367.97V278.98H410.7V262.91Z" fill="white"/>
<path opacity="0.2" d="M410.7 282.91H367.97V298.98H410.7V282.91Z" fill="white"/>
<path opacity="0.2" d="M410.7 302.91H367.97V345.64H410.7V302.91Z" fill="white"/>
<path opacity="0.2" d="M388.24 267.7C389.173 267.7 389.93 266.943 389.93 266.01C389.93 265.077 389.173 264.32 388.24 264.32C387.307 264.32 386.55 265.077 386.55 266.01C386.55 266.943 387.307 267.7 388.24 267.7Z" fill="black"/>
<path opacity="0.2" d="M388.24 286.99C389.173 286.99 389.93 286.233 389.93 285.3C389.93 284.367 389.173 283.61 388.24 283.61C387.307 283.61 386.55 284.367 386.55 285.3C386.55 286.233 387.307 286.99 388.24 286.99Z" fill="black"/>
<path opacity="0.2" d="M371.72 324.27C371.738 324.502 371.708 324.736 371.631 324.956C371.555 325.176 371.433 325.377 371.275 325.548C371.117 325.719 370.925 325.855 370.712 325.949C370.498 326.042 370.268 326.09 370.035 326.09C369.802 326.09 369.572 326.042 369.358 325.949C369.145 325.855 368.953 325.719 368.795 325.548C368.637 325.377 368.516 325.176 368.439 324.956C368.362 324.736 368.332 324.502 368.35 324.27C368.383 323.846 368.574 323.449 368.887 323.16C369.199 322.871 369.609 322.71 370.035 322.71C370.461 322.71 370.871 322.871 371.183 323.16C371.496 323.449 371.687 323.846 371.72 324.27Z" fill="black"/>
<path d="M412.02 195.16H407.22V259.22H412.02V195.16Z" fill="#263238"/>
<path d="M383.98 217.18H435.27L431.12 180.88H388.13L383.98 217.18Z" fill="#407BFF"/>
<g opacity="0.6">
<path opacity="0.6" d="M383.98 217.18H435.27L431.12 180.88H388.13L383.98 217.18Z" fill="white"/>
</g>
<path opacity="0.2" d="M407.22 231.79V259.23H412.03V228.79L407.22 231.79Z" fill="white"/>
<path d="M418.03 256.41H401.22L398.22 259.23H421.03L418.03 256.41Z" fill="#407BFF"/>
<path opacity="0.2" d="M418.03 256.41H401.22L398.22 259.23H421.03L418.03 256.41Z" fill="white"/>
<path d="M139 107.18C137.693 106.372 136.13 106.083 134.62 106.37C130.34 107.18 129.32 111.37 129.89 114.48C130.137 115.741 130.718 116.912 131.573 117.871C132.428 118.83 133.525 119.541 134.75 119.93C138.12 120.78 141.09 117.66 141.96 115.32C142.512 113.833 142.517 112.197 141.975 110.706C141.433 109.215 140.378 107.965 139 107.18V107.18Z" fill="#263238"/>
<path d="M214.45 153.16L231.36 148.42C231.36 148.42 231.36 147.42 233.99 145.55C236.62 143.68 243.66 142.21 243.66 142.21C243.66 142.21 246.9 151.58 245.85 151.84C244.8 152.1 235.31 155.27 234.78 154.22L216.78 159.31L214.45 153.16Z" fill="#B97964"/>
<path d="M162.93 133.62C172.8 136.81 188.17 154.22 191.17 155.27C194.17 156.32 222.89 150.11 222.89 150.11L226.89 157.5C226.89 157.5 200.53 167.04 191.14 166.3C181.75 165.56 169.5 151.64 160.72 149.63L162.93 133.62Z" fill="#E4897B"/>
<path opacity="0.5" d="M226.92 157.5C226.92 157.5 200.56 167.04 191.17 166.3C185.1 165.82 177.85 159.85 171.17 155.14C167.46 152.56 163.91 150.35 160.8 149.63L161.94 141.25L162.94 133.62C172.81 136.81 188.18 154.21 191.18 155.27C194.18 156.33 222.9 150.11 222.9 150.11L226.92 157.5Z" fill="white"/>
<path opacity="0.2" d="M171.12 155.14C167.41 152.56 163.86 150.35 160.75 149.63L161.89 141.25C164.72 144 169.08 149 171.12 155.14Z" fill="black"/>
<path d="M177.47 348.35L170.8 349.52L168.07 340.44L165.58 332.11L173.26 329.43L175.49 339.44L177.47 348.35Z" fill="#E4897B"/>
<path d="M169.3 349.35C169.19 348.61 178.3 347.6 178.3 347.6C178.3 347.6 184.85 352.26 190.47 352.6C196.09 352.94 193.64 356.68 187.61 357.75L172.71 360.38C168.43 361.11 170.47 357 169.3 349.35Z" fill="#263238"/>
<path d="M182.8 349.12C181.693 349.069 180.595 348.888 179.53 348.58C179.504 348.586 179.476 348.586 179.45 348.58C179.422 348.565 179.401 348.54 179.39 348.51V348.51C179.39 348.51 179.39 348.51 179.39 348.45C179.385 348.414 179.385 348.377 179.39 348.34C179.39 348.24 179.8 346 180.93 345.28C181.1 345.167 181.294 345.093 181.496 345.063C181.698 345.034 181.905 345.05 182.1 345.11C182.55 345.23 182.79 345.45 182.83 345.76C182.89 346.24 182.33 346.83 181.66 347.35C182.32 347.112 183.034 347.063 183.72 347.21C183.849 347.253 183.968 347.323 184.07 347.414C184.171 347.505 184.253 347.616 184.31 347.74C184.409 347.888 184.462 348.062 184.462 348.24C184.462 348.418 184.409 348.592 184.31 348.74C184.098 348.904 183.855 349.023 183.595 349.088C183.335 349.154 183.064 349.164 182.8 349.12V349.12ZM180.33 348.29C181.75 348.62 183.49 348.82 183.86 348.4C183.86 348.4 183.99 348.25 183.86 347.91C183.832 347.845 183.79 347.786 183.736 347.739C183.682 347.693 183.619 347.659 183.55 347.64C182.81 347.38 181.3 347.88 180.33 348.29ZM181.66 345.5C181.478 345.499 181.299 345.555 181.15 345.66C180.519 346.247 180.095 347.022 179.94 347.87C181.19 347.13 182.36 346.2 182.31 345.79C182.31 345.66 182.07 345.58 181.93 345.54C181.842 345.517 181.751 345.504 181.66 345.5V345.5Z" fill="#407BFF"/>
<path opacity="0.2" d="M175.53 339.65L168.1 340.63L165.6 332.2L173.27 329.47L175.53 339.65Z" fill="black"/>
<path d="M133 351.2H126.23L125.12 341.79L124.12 333.14L132.15 331.84L132.6 342.09L133 351.2Z" fill="#E4897B"/>
<path d="M124.78 350.77C124.78 350.02 133.96 350.61 133.96 350.61C133.96 350.61 139.6 356.34 145.07 357.61C150.54 358.88 147.49 362.18 141.37 362.18H126.23C121.88 362.2 124.6 358.5 124.78 350.77Z" fill="#263238"/>
<path d="M138.78 353C137.459 352.837 136.176 352.445 134.99 351.84C134.955 351.83 134.923 351.809 134.9 351.78V351.78V351.73C134.875 351.669 134.875 351.601 134.9 351.54C134.9 351.45 135.7 349.31 136.9 348.8C137.085 348.713 137.286 348.669 137.49 348.669C137.694 348.669 137.895 348.713 138.08 348.8C138.5 349 138.7 349.26 138.68 349.57C138.68 350.05 138 350.57 137.26 350.93C137.935 350.824 138.626 350.903 139.26 351.16C139.382 351.222 139.489 351.309 139.573 351.416C139.658 351.523 139.718 351.647 139.75 351.78C139.825 351.948 139.845 352.136 139.805 352.316C139.765 352.496 139.669 352.659 139.53 352.78C139.31 352.932 139.047 353.009 138.78 353V353ZM135.78 351.69C137.13 352.26 138.78 352.77 139.24 352.41C139.24 352.41 139.4 352.29 139.3 351.93C139.285 351.86 139.253 351.795 139.208 351.739C139.163 351.684 139.105 351.639 139.04 351.61C138.42 351.18 136.85 351.41 135.82 351.64L135.78 351.69ZM137.42 349.17C137.293 349.17 137.168 349.193 137.05 349.24C136.327 349.722 135.777 350.423 135.48 351.24C136.84 350.73 138.15 350.01 138.17 349.6C138.17 349.48 137.97 349.36 137.84 349.3C137.729 349.211 137.599 349.15 137.46 349.12L137.42 349.17Z" fill="#407BFF"/>
<path opacity="0.2" d="M132.6 342.3L125.12 341.97L124.12 333.24L132.15 331.88L132.6 342.3Z" fill="black"/>
<path d="M176.15 334.36L165.15 336.29C154.15 308.76 146.24 285.78 140.69 266.71C137.69 256.42 135.37 247.27 133.58 239.15L134.08 269.15V337.2H123C95.95 208.2 115.12 178.72 115.12 178.72L147.48 173.19C148.761 179.164 149.666 185.213 150.19 191.3L151.65 202L164.3 267.32L176.15 334.36Z" fill="#264A99"/>
<path opacity="0.5" d="M176.15 334.36L165.15 336.29C154.15 308.76 146.24 285.78 140.69 266.71C137.69 256.42 135.37 247.27 133.58 239.15L134.08 269.15V337.2H123C95.95 208.2 115.12 178.72 115.12 178.72L147.48 173.19C148.761 179.164 149.666 185.213 150.19 191.3L151.65 202L164.3 267.32L176.15 334.36Z" fill="white" fill-opacity="0.3"/>
<path d="M163.49 334.94L177.07 330.44L176.88 336.21L165.65 339.8L163.49 334.94Z" fill="#264A99"/>
<path d="M121.56 335.57L135.72 333.5L134.53 339.15L122.85 340.73L121.56 335.57Z" fill="#264A99"/>
<path opacity="0.2" d="M140.74 266.71C137.74 256.42 135.42 247.27 133.63 239.15C133.782 229.538 134.48 219.943 135.72 210.41C135.72 210.41 140.46 247.48 140.74 266.71Z" fill="black"/>
<path d="M152.82 198L139 202.68L136.44 194.27L133.64 202.02L108.55 196.18C110.7 180.78 119.29 168.49 120.64 163.83C122.5 157.39 123.96 145.07 122.69 137.1V137C122.563 136.196 122.604 135.374 122.809 134.586C123.015 133.799 123.38 133.062 123.884 132.422C124.387 131.782 125.016 131.252 125.733 130.866C126.45 130.481 127.239 130.247 128.05 130.18C130.47 129.99 132.91 129.9 135.35 129.89C140.187 129.833 145.023 130.117 149.82 130.74C155.98 131.74 162.95 133.58 162.95 133.58C162.95 133.58 163.95 133.99 163.47 140.58C163.06 146.37 161.95 164.36 150.11 179.58L152.82 198Z" fill="#DD1111"/>
<path opacity="0.6" d="M152.82 198L139 202.68L136.44 194.27L133.64 202.02L108.55 196.18C110.7 180.78 119.29 168.49 120.64 163.83C122.5 157.39 123.96 145.07 122.69 137.1V137C122.563 136.196 122.604 135.374 122.809 134.586C123.015 133.799 123.38 133.062 123.884 132.422C124.387 131.782 125.016 131.252 125.733 130.866C126.45 130.481 127.239 130.247 128.05 130.18C130.47 129.99 132.91 129.9 135.35 129.89C140.187 129.833 145.023 130.117 149.82 130.74C155.98 131.74 162.95 133.58 162.95 133.58C162.95 133.58 163.95 133.99 163.47 140.58C163.06 146.37 161.95 164.36 150.11 179.58L152.82 198Z" fill="white"/>
<path d="M138.75 142.21C138.75 142.21 144.27 147 145.88 159.31L152.11 142.1L156.39 143.41C156.39 143.41 153.09 127.8 142.39 127.51C131.69 127.22 132.49 143.41 132.49 143.41L138.75 142.21Z" fill="#E4897B"/>
<path opacity="0.5" d="M138.75 142.21C138.75 142.21 144.27 147 145.88 159.31L152.11 142.1L156.39 143.41C156.39 143.41 153.09 127.8 142.39 127.51C131.69 127.22 132.49 143.41 132.49 143.41L138.75 142.21Z" fill="white"/>
<path d="M154.27 124.66C154.27 124.66 150.35 127.19 149.67 128.87C149.628 128.974 149.594 129.081 149.57 129.19C149.383 130.145 149.253 131.11 149.18 132.08C152.18 138.53 146.43 149.63 146.43 149.63C144.089 143.072 140.776 136.903 136.6 131.33C142.89 128.87 144.09 116.81 144.09 116.81L147.09 119.16L154.27 124.66Z" fill="#E4897B"/>
<path opacity="0.2" d="M154.27 124.66C154.27 124.66 150.35 127.19 149.67 128.87C149.628 128.974 149.594 129.081 149.57 129.19C147.909 127.922 146.585 126.266 145.713 124.368C144.842 122.469 144.449 120.386 144.57 118.3L147.12 119.16L154.27 124.66Z" fill="black"/>
<path d="M158.62 96.39C158.62 96.39 166.55 94.17 170.39 100.57C174.23 106.97 171.16 111.82 168.49 114.13" stroke="#263238" stroke-width="0.488465" stroke-linecap="round" stroke-linejoin="round"/>
<path d="M161.78 96C161.78 96 168.24 96.2 170.03 101.66C171.82 107.12 170.49 113.25 160.9 119.85C156.21 123.08 144.56 116.77 144.56 116.77L143.63 119.59C142.073 118.462 140.659 117.149 139.42 115.68C135.65 111.26 136.62 96.62 147.08 93.75C158 90.8 161.78 96 161.78 96Z" fill="#263238"/>
<path d="M155.62 97.8699C163.83 98.9799 165.88 103.74 165.33 112.29C164.64 122.96 161.27 130.16 151.33 126.5C137.78 121.53 142 95.9999 155.62 97.8699Z" fill="#E4897B"/>
<path d="M160.08 111.1C160.572 112.416 161.22 113.668 162.01 114.83C161.723 115.139 161.356 115.362 160.95 115.475C160.544 115.588 160.115 115.586 159.71 115.47L160.08 111.1Z" fill="#DE5753"/>
<path d="M155.15 109.75C155.07 110.42 154.64 110.93 154.15 110.88C153.66 110.83 153.4 110.24 153.47 109.56C153.54 108.88 153.98 108.38 154.47 108.43C154.96 108.48 155.22 109.07 155.15 109.75Z" fill="#263238"/>
<path d="M154.28 108.44L155.81 108.03C155.81 108.03 154.94 109.19 154.28 108.44Z" fill="#263238"/>
<path d="M163.57 110.55C163.5 111.23 163.07 111.74 162.62 111.69C162.17 111.64 161.86 111.05 161.94 110.37C162.02 109.69 162.44 109.18 162.94 109.24C163.44 109.3 163.65 109.88 163.57 110.55Z" fill="#263238"/>
<path d="M162.7 109.25L164.24 108.84C164.24 108.84 163.37 110 162.7 109.25Z" fill="#263238"/>
<path d="M155.84 104.07C155.202 103.901 154.534 103.88 153.888 104.01C153.241 104.14 152.633 104.417 152.11 104.82" stroke="#263238" stroke-width="0.707962" stroke-linecap="round" stroke-linejoin="round"/>
<path d="M161.85 104.53C162.43 104.464 163.018 104.53 163.569 104.724C164.12 104.918 164.619 105.235 165.03 105.65" stroke="#263238" stroke-width="0.707962" stroke-linecap="round" stroke-linejoin="round"/>
<path d="M144.76 110.48C144.76 110.48 149.52 104.26 149.65 98.9699C149.65 98.9699 166.83 94.5399 165.38 111.17C165.38 111.17 168.97 96.7199 154.9 94.4699C140.83 92.2199 137.58 111.6 144 118.75C144 118.75 141.81 114.38 144.76 110.48Z" fill="#263238"/>
<path d="M145.87 112.4C145.916 111.44 145.582 110.5 144.94 109.785C144.298 109.07 143.4 108.637 142.44 108.58C139.86 108.51 137.93 113.58 144.09 115.69C145 116 145.61 115.17 145.87 112.4Z" fill="#E4897B"/>
<path d="M159.27 117.92C158.925 118.899 158.651 119.902 158.45 120.92H157.9C155.42 120.8 154.31 119.92 153.83 119C153.601 118.541 153.488 118.033 153.5 117.52C153.498 117.23 153.535 116.94 153.61 116.66C155.111 117.408 156.754 117.828 158.43 117.89C159 117.92 159.27 117.92 159.27 117.92Z" fill="#263238"/>
<path d="M158.43 117.87L158.16 118.75C155.83 118.63 154.16 118.24 153.5 117.5C153.498 117.21 153.535 116.92 153.61 116.64C155.111 117.388 156.754 117.808 158.43 117.87V117.87Z" fill="white"/>
<path d="M157.9 120.9C155.42 120.78 154.31 119.9 153.83 118.98C154.769 119.04 155.69 119.267 156.55 119.65C157.12 119.915 157.592 120.352 157.9 120.9Z" fill="#DE5753"/>
<path opacity="0.1" d="M145.08 98.55C142.011 100.298 139.383 102.727 137.4 105.65L138 92.87L135.75 89.34L145.08 98.55Z" fill="black"/>
<path d="M176 188.18L187 190.72C189.745 190.884 192.465 191.347 195.11 192.1C199.27 193.32 203.77 195.1 203.11 196.18C202.45 197.26 195.25 203.05 192.95 202.68C190.65 202.31 184.18 198.68 184.95 196.88L174.21 194.27L176 188.18Z" fill="#E4897B"/>
<path d="M125.7 130.9C129.64 129.75 137.29 166.9 142.93 173.19C148.57 179.48 182.57 188.74 182.57 188.74L180.85 196.18C180.85 196.18 139.17 191.11 133.63 183.18C128.09 175.25 120.38 154 119.4 143.41C118.42 132.82 123.38 131.59 125.7 130.9Z" fill="#E4897B"/>
<path opacity="0.5" d="M125.7 130.9C129.64 129.75 137.29 166.9 142.93 173.19C148.57 179.48 182.57 188.74 182.57 188.74L180.85 196.18C180.85 196.18 139.17 191.11 133.63 183.18C128.09 175.25 120.38 154 119.4 143.41C118.42 132.82 123.38 131.59 125.7 130.9Z" fill="white"/>
<path d="M190.24 196.87L180 198.8C180 198.8 169.29 196.46 167.43 196.87C165.57 197.28 160.75 206.73 160.75 206.73C160.75 206.73 177.2 210.32 179.3 209.62C181.4 208.92 183.14 206.19 183.14 206.19L191.14 204.71L190.24 196.87Z" fill="#E4897B"/>
<path d="M211.14 148.4C206.3 155.67 213.33 185.16 213.77 187.03C214.21 188.9 184.93 196.82 184.93 196.82L189.15 209.73C189.15 209.73 225.64 205.52 229.69 201.17C233.74 196.82 229.18 161.06 229.18 161.06L211.18 148.4H211.14Z" fill="#407BFF"/>
<path opacity="0.4" d="M229.69 201.17C226.24 204.88 199.2 208.49 191.31 209.47L189.15 209.73L184.93 196.82L186.85 196.29C193.36 194.49 214.14 188.61 213.77 187.03C213.33 185.16 206.3 155.67 211.14 148.4L214.27 149.72L224.63 157.6L229.18 161.06C229.18 161.06 231 175 231.3 186.47C231.51 193.44 231.21 199.53 229.69 201.17Z" fill="black"/>
<path opacity="0.1" d="M191.31 209.47L189.15 209.73L184.93 196.82L186.85 196.29L191.31 209.47Z" fill="black"/>
<path opacity="0.2" d="M231.3 186.47C225.3 176.86 224.71 166.33 224.63 157.6L229.18 161.06C229.18 161.06 231 175 231.3 186.47Z" fill="black"/>
<path d="M145.47 362.18L152.47 248.05H209.14L216.14 362.18H221.14L212.08 215.47C211.861 212.134 210.394 209.003 207.97 206.701C205.545 204.399 202.343 203.096 199 203.05H162.8C159.429 203.058 156.186 204.346 153.728 206.654C151.27 208.961 149.781 212.116 149.56 215.48L140.56 362.18H145.47ZM154.47 215.79C154.607 213.694 155.535 211.729 157.067 210.292C158.599 208.854 160.62 208.053 162.72 208.05H199C201.097 208.056 203.114 208.857 204.643 210.291C206.173 211.726 207.101 213.688 207.24 215.78L208.92 243.05H152.82L154.47 215.79Z" fill="#407BFF"/>
<path d="M250.1 354.61L242.28 356.89L237.67 339.96L245.49 337.67L250.1 354.61Z" fill="#B97964"/>
<path d="M241.43 353.26H251C251.156 353.261 251.308 353.315 251.429 353.413C251.551 353.511 251.636 353.647 251.67 353.8L253.22 360.8C253.283 361.101 253.224 361.414 253.058 361.672C252.891 361.931 252.63 362.113 252.33 362.18C252.244 362.19 252.156 362.19 252.07 362.18C248.98 362.13 246.74 361.94 242.86 361.94C240.47 361.94 233.27 362.19 229.97 362.19C226.67 362.19 226.24 358.94 227.59 358.64C233.65 357.32 238.2 355.49 240.14 353.75C240.493 353.43 240.954 353.255 241.43 353.26V353.26Z" fill="#263238"/>
<path opacity="0.2" d="M245.49 337.67L237.67 339.96L240.05 348.69L247.88 346.41L245.49 337.67Z" fill="black"/>
<path d="M275.53 192.57C277.665 203.346 278.554 214.331 278.18 225.31C277.48 242.92 237.68 264.78 236.92 270.93C236.16 277.08 249.17 341.39 249.17 341.39L235.44 346.27C235.44 346.27 208.31 288.05 208 273.8C207.69 259.55 237.68 225.31 245.86 215.87C249.04 212.2 245.91 197.43 245.91 197.43L275.53 192.57Z" fill="#263238"/>
<path opacity="0.3" d="M278.18 225.31C277.93 231.68 272.56 238.6 265.77 245.14C255 255.56 240.53 265 237.49 269.62C237.204 270.008 237.009 270.456 236.92 270.93C236.17 277.09 249.17 341.39 249.17 341.39L235.44 346.26C235.44 346.26 208.31 288.05 208 273.8C207.69 259.55 237.68 225.31 245.86 215.87C249.04 212.2 245.91 197.43 245.91 197.43L275.54 192.56C277.672 203.34 278.557 214.328 278.18 225.31Z" fill="white"/>
<path d="M234.59 348.67L251.31 343L249.93 338.34L232.47 343.92L234.59 348.67Z" fill="#407BFF"/>
<path opacity="0.6" d="M234.59 348.67L251.31 343L249.93 338.34L232.47 343.92L234.59 348.67Z" fill="white"/>
<path opacity="0.2" d="M265.77 245.14C255 255.56 240.53 265 237.49 269.62C238.07 248.91 263.07 226.87 263.07 226.87L265.77 245.14Z" fill="black"/>
<path d="M287.97 354.61L280.15 356.89L275.53 339.96L283.36 337.67L287.97 354.61Z" fill="#B97964"/>
<path d="M279.3 353.26H288.84C288.996 353.261 289.148 353.315 289.27 353.413C289.391 353.511 289.476 353.647 289.51 353.8L291.06 360.8C291.122 361.102 291.063 361.417 290.894 361.675C290.726 361.934 290.462 362.115 290.16 362.18C290.077 362.19 289.993 362.19 289.91 362.18C286.82 362.13 284.57 361.94 280.7 361.94C278.31 361.94 271.1 362.19 267.81 362.19C264.52 362.19 264.08 358.94 265.43 358.64C271.48 357.32 276.04 355.49 277.98 353.75C278.34 353.423 278.813 353.247 279.3 353.26V353.26Z" fill="#263238"/>
<path opacity="0.2" d="M283.36 337.67L275.53 339.96L277.92 348.69L285.74 346.41L283.36 337.67Z" fill="black"/>
<path d="M291.08 189C295.521 199.108 297.676 210.073 297.39 221.11C296.69 238.71 275.55 264.77 274.79 270.92C274.03 277.07 287 341.39 287 341.39L273.26 346.27C273.26 346.27 246.13 288.05 245.81 273.8C245.49 259.55 263.03 226.87 263.03 226.87L259.38 194.47L291.08 189Z" fill="#263238"/>
<path opacity="0.3" d="M291.08 189C295.521 199.108 297.676 210.073 297.39 221.11C296.69 238.71 275.55 264.77 274.79 270.92C274.03 277.07 287 341.39 287 341.39L273.26 346.27C273.26 346.27 246.13 288.05 245.81 273.8C245.49 259.55 263.03 226.87 263.03 226.87L259.38 194.47L291.08 189Z" fill="white"/>
<path d="M272.45 348.67L289.18 343L287.79 338.34L270.34 343.92L272.45 348.67Z" fill="#407BFF"/>
<path opacity="0.6" d="M272.45 348.67L289.18 343L287.79 338.34L270.34 343.92L272.45 348.67Z" fill="white"/>
<path d="M297.44 209.71C297.44 209.71 249.72 216.91 244.98 213.08C237.98 207.44 230.25 160.26 211.14 148.4C213.106 145.249 215.495 142.382 218.24 139.88C224.164 134.289 231.325 130.178 239.14 127.88C245.086 126.16 251.264 125.381 257.45 125.57C257.45 125.57 294.91 152.19 297.44 209.71Z" fill="#407BFF"/>
<path opacity="0.3" d="M297.44 209.71C297.44 209.71 249.72 216.91 244.98 213.08C244.465 212.64 244.02 212.124 243.66 211.55C236.98 201.68 229.06 159.55 211.14 148.4C213.106 145.249 215.495 142.382 218.24 139.88L219.04 139.14C224.811 133.934 231.681 130.096 239.14 127.91C239.53 127.79 239.93 127.68 240.33 127.58C245.909 126.082 251.676 125.408 257.45 125.58C257.45 125.58 265.8 131.51 274.88 143.82C280.319 151.213 284.842 159.239 288.35 167.72C293.259 179.676 296.233 192.338 297.16 205.23C297.28 206.72 297.37 208.2 297.44 209.71Z" fill="black"/>
<path opacity="0.1" d="M240.33 127.58C238.822 135.305 236.544 142.859 233.53 150.13C233.53 150.13 223.74 146.51 219.04 139.13C224.811 133.924 231.681 130.086 239.14 127.9C239.53 127.79 239.93 127.68 240.33 127.58Z" fill="black"/>
<path opacity="0.1" d="M297.44 209.71C297.44 209.71 249.72 216.91 244.98 213.08C244.465 212.64 244.02 212.124 243.66 211.55C261.702 212.006 279.717 209.885 297.16 205.25C297.28 206.72 297.37 208.2 297.44 209.71Z" fill="black"/>
<path opacity="0.2" d="M278.342 173.997C262.959 166.079 258.527 145.825 258.527 145.825L270.388 147.761C274.089 156.153 276.759 164.963 278.342 173.997V173.997Z" fill="black"/>
<path d="M238 128.61C235.1 139.19 230.89 141.01 227.59 140.39C225.635 139.899 223.862 138.858 222.48 137.39C222.822 136.759 222.981 136.046 222.94 135.33C222.875 134.547 222.635 133.789 222.239 133.111C221.843 132.432 221.3 131.851 220.65 131.41C220.015 130.92 219.347 130.476 218.65 130.08L218.86 127.36L219.86 114.45C221.698 117.262 223.741 119.936 225.97 122.45C226.72 123.27 227.51 124.07 228.32 124.8C231.35 127.57 234.73 129.42 238 128.61Z" fill="#E4897B"/>
<path opacity="0.2" d="M227.58 140.39C225.625 139.899 223.852 138.858 222.47 137.39C222.812 136.759 222.971 136.046 222.93 135.33C222.865 134.547 222.625 133.789 222.229 133.111C221.833 132.433 221.29 131.851 220.64 131.41C220.005 130.92 219.337 130.476 218.64 130.08L218.85 127.36L228.32 124.78C228.32 124.78 230.69 134.26 227.58 140.39Z" fill="black"/>
<path d="M203.92 113.93C203.92 113.93 201.09 113.63 200.63 117.31C200.17 120.99 201.42 121.06 201.42 121.06C201.42 121.06 200.42 124.14 201.66 125.01C202.9 125.88 203.92 129.56 203.92 129.56L206.72 124.42L203.92 113.93Z" fill="#263238"/>
<path opacity="0.6" d="M203.92 113.93C203.92 113.93 201.09 113.63 200.63 117.31C200.17 120.99 201.42 121.06 201.42 121.06C201.42 121.06 200.42 124.14 201.66 125.01C202.9 125.88 203.92 129.56 203.92 129.56L206.72 124.42L203.92 113.93Z" fill="white"/>
<path d="M225.78 132.83C225.582 133.244 225.358 133.644 225.11 134.03C223.92 136.044 222.099 137.609 219.93 138.484C217.761 139.359 215.364 139.494 213.11 138.87C210.175 138.13 207.635 136.294 206.01 133.74C205.773 133.391 205.56 133.027 205.37 132.65C205 131.89 204.63 131.06 204.3 130.17C201.62 123 198.84 113.17 207.51 107.99C212.97 104.7 222.14 104.29 225.41 109.78C226.608 111.783 227.38 114.01 227.679 116.324C227.979 118.638 227.798 120.989 227.15 123.23C227.65 126.05 228.14 128.09 225.78 132.83Z" fill="#E4897B"/>
<path d="M229.37 116.51C229.37 116.51 230.82 116.44 230.23 114.51C229.64 112.58 227.16 111.32 227.16 111.32C227.16 111.32 229.16 110 226.54 108.75C225.201 108.138 223.683 108.045 222.28 108.49C221.41 107.76 213.77 101.63 208.58 105.28C208.534 105.32 208.504 105.376 208.496 105.437C208.489 105.497 208.503 105.559 208.538 105.609C208.572 105.66 208.624 105.696 208.684 105.711C208.743 105.726 208.806 105.718 208.86 105.69C213.39 102.51 220.22 107.5 221.72 108.69L221.34 108.87C219.78 108.17 208.29 103.24 204.43 109.03C204.411 109.057 204.398 109.088 204.392 109.121C204.385 109.154 204.385 109.187 204.391 109.22C204.398 109.252 204.411 109.283 204.43 109.311C204.448 109.338 204.472 109.362 204.5 109.38C204.527 109.398 204.557 109.411 204.589 109.418C204.62 109.424 204.653 109.424 204.685 109.418C204.717 109.411 204.747 109.398 204.773 109.38C204.8 109.361 204.823 109.338 204.84 109.31C208.23 104.23 218.42 108.17 220.79 109.18C220.532 109.34 220.288 109.52 220.06 109.72C217.68 109.07 210.14 107.29 205.62 109.72C204.85 110.122 204.173 110.681 203.634 111.361C203.095 112.042 202.705 112.829 202.49 113.67C202.481 113.701 202.478 113.733 202.482 113.765C202.485 113.797 202.496 113.828 202.511 113.856C202.527 113.884 202.549 113.909 202.574 113.928C202.6 113.948 202.629 113.962 202.66 113.97H202.73C202.784 113.97 202.837 113.952 202.88 113.92C202.923 113.888 202.955 113.842 202.97 113.79C203.171 113.015 203.532 112.291 204.029 111.664C204.527 111.037 205.151 110.521 205.86 110.15C209.99 107.9 217.04 109.41 219.64 110.09C219.223 110.562 218.885 111.099 218.64 111.68C217.27 114.98 219.49 116.23 220.94 117.89C222.39 119.55 221.72 122.29 221.7 122.38C221.011 123.993 219.964 125.429 218.64 126.58C217.714 126.203 216.676 126.203 215.75 126.58C214.494 127.153 213.489 128.162 212.92 129.42C208.53 128.96 207.82 132.55 207.82 132.55C205.898 131.145 204.367 129.272 203.37 127.11C202.93 131.11 204.37 135.29 205.78 137C207.19 138.71 207.89 137 207.89 137C207.89 137 208.22 140.36 210.1 141.62C211.98 142.88 212.64 141.35 212.64 141.35C212.64 141.35 213.64 143.46 217.19 144.35C220.74 145.24 221.87 140.13 221.87 140.13C225.76 143.13 225.43 136.04 225.43 136.04C225.43 136.04 227.34 136.57 227.16 133.11C227.01 130.41 224.61 125.19 223.55 123C225.13 122.75 227.55 126.36 227.55 126.36C234.38 127 229.37 116.51 229.37 116.51Z" fill="#263238"/>
<path opacity="0.6" d="M229.37 116.51C229.37 116.51 230.82 116.44 230.23 114.51C229.64 112.58 227.16 111.32 227.16 111.32C227.16 111.32 229.16 110 226.54 108.75C225.201 108.138 223.683 108.045 222.28 108.49C221.41 107.76 213.77 101.63 208.58 105.28C208.534 105.32 208.504 105.376 208.496 105.437C208.489 105.497 208.503 105.559 208.538 105.609C208.572 105.66 208.624 105.696 208.684 105.711C208.743 105.726 208.806 105.718 208.86 105.69C213.39 102.51 220.22 107.5 221.72 108.69L221.34 108.87C219.78 108.17 208.29 103.24 204.43 109.03C204.411 109.057 204.398 109.088 204.392 109.121C204.385 109.154 204.385 109.187 204.391 109.22C204.398 109.252 204.411 109.283 204.43 109.311C204.448 109.338 204.472 109.362 204.5 109.38C204.527 109.398 204.557 109.411 204.589 109.418C204.62 109.424 204.653 109.424 204.685 109.418C204.717 109.411 204.747 109.398 204.773 109.38C204.8 109.361 204.823 109.338 204.84 109.31C208.23 104.23 218.42 108.17 220.79 109.18C220.532 109.34 220.288 109.52 220.06 109.72C217.68 109.07 210.14 107.29 205.62 109.72C204.85 110.122 204.173 110.681 203.634 111.361C203.095 112.042 202.705 112.829 202.49 113.67C202.481 113.701 202.478 113.733 202.482 113.765C202.485 113.797 202.496 113.828 202.511 113.856C202.527 113.884 202.549 113.909 202.574 113.928C202.6 113.948 202.629 113.962 202.66 113.97H202.73C202.784 113.97 202.837 113.952 202.88 113.92C202.923 113.888 202.955 113.842 202.97 113.79C203.171 113.015 203.532 112.291 204.029 111.664C204.527 111.037 205.151 110.521 205.86 110.15C209.99 107.9 217.04 109.41 219.64 110.09C219.223 110.562 218.885 111.099 218.64 111.68C217.27 114.98 219.49 116.23 220.94 117.89C222.39 119.55 221.72 122.29 221.7 122.38C221.011 123.993 219.964 125.429 218.64 126.58C217.714 126.203 216.676 126.203 215.75 126.58C214.494 127.153 213.489 128.162 212.92 129.42C208.53 128.96 207.82 132.55 207.82 132.55C205.898 131.145 204.367 129.272 203.37 127.11C202.93 131.11 204.37 135.29 205.78 137C207.19 138.71 207.89 137 207.89 137C207.89 137 208.22 140.36 210.1 141.62C211.98 142.88 212.64 141.35 212.64 141.35C212.64 141.35 213.64 143.46 217.19 144.35C220.74 145.24 221.87 140.13 221.87 140.13C225.76 143.13 225.43 136.04 225.43 136.04C225.43 136.04 227.34 136.57 227.16 133.11C227.01 130.41 224.61 125.19 223.55 123C225.13 122.75 227.55 126.36 227.55 126.36C234.38 127 229.37 116.51 229.37 116.51Z" fill="white"/>
<path d="M213.7 120.88C213.9 121.53 213.63 122.17 213.19 122.27C212.75 122.37 212.27 121.91 212.11 121.27C211.95 120.63 212.19 119.97 212.63 119.87C213.07 119.77 213.54 120.2 213.7 120.88Z" fill="#263238"/>
<path d="M206.12 122.63C206.23 122.884 206.237 123.171 206.14 123.43C206.043 123.689 205.85 123.901 205.6 124.02C205.16 124.12 204.68 123.66 204.52 123.02C204.36 122.38 204.6 121.72 205.04 121.62C205.48 121.52 206 122 206.12 122.63Z" fill="#263238"/>
<path d="M208.6 122.4C208.277 124.637 207.644 126.818 206.72 128.88C207.258 129.104 207.838 129.207 208.42 129.183C209.003 129.158 209.572 129.007 210.09 128.74L208.6 122.4Z" fill="#DE5753"/>
<path d="M215.49 117.88C215.42 117.906 215.344 117.913 215.271 117.901C215.197 117.888 215.128 117.857 215.07 117.81C214.688 117.475 214.234 117.234 213.742 117.106C213.251 116.977 212.737 116.965 212.24 117.07C212.139 117.101 212.03 117.092 211.936 117.043C211.843 116.994 211.772 116.911 211.74 116.81C211.712 116.708 211.724 116.599 211.774 116.506C211.825 116.412 211.909 116.342 212.01 116.31V116.31C212.634 116.16 213.286 116.163 213.909 116.318C214.532 116.473 215.109 116.775 215.59 117.2C215.672 117.267 215.724 117.363 215.735 117.468C215.746 117.572 215.716 117.678 215.65 117.76V117.76C215.604 117.808 215.55 117.849 215.49 117.88V117.88Z" fill="#263238"/>
<path d="M202.25 120.76C202.185 120.811 202.103 120.836 202.02 120.83C201.918 120.806 201.829 120.744 201.772 120.657C201.714 120.569 201.692 120.463 201.71 120.36V120.36C201.838 119.731 202.115 119.141 202.519 118.642C202.923 118.142 203.441 117.747 204.03 117.49C204.08 117.471 204.133 117.462 204.186 117.464C204.24 117.466 204.292 117.478 204.341 117.5C204.389 117.523 204.433 117.555 204.469 117.594C204.504 117.633 204.532 117.68 204.55 117.73C204.581 117.831 204.573 117.94 204.529 118.036C204.485 118.132 204.407 118.208 204.31 118.25C203.85 118.466 203.447 118.786 203.132 119.185C202.818 119.585 202.602 120.052 202.5 120.55C202.477 120.601 202.442 120.647 202.399 120.683C202.355 120.72 202.305 120.746 202.25 120.76Z" fill="#263238"/>
<path opacity="0.6" d="M215.49 117.88C215.42 117.906 215.344 117.913 215.271 117.901C215.197 117.888 215.128 117.857 215.07 117.81C214.688 117.475 214.234 117.234 213.742 117.106C213.251 116.977 212.737 116.965 212.24 117.07C212.139 117.101 212.03 117.092 211.936 117.043C211.843 116.994 211.772 116.911 211.74 116.81C211.712 116.708 211.724 116.599 211.774 116.506C211.825 116.412 211.909 116.342 212.01 116.31V116.31C212.634 116.16 213.286 116.163 213.909 116.318C214.532 116.473 215.109 116.775 215.59 117.2C215.672 117.267 215.724 117.363 215.735 117.468C215.746 117.572 215.716 117.678 215.65 117.76V117.76C215.604 117.808 215.55 117.849 215.49 117.88V117.88Z" fill="white"/>
<path opacity="0.6" d="M202.25 120.76C202.185 120.811 202.103 120.836 202.02 120.83C201.918 120.806 201.829 120.744 201.772 120.657C201.714 120.569 201.692 120.463 201.71 120.36V120.36C201.838 119.731 202.115 119.141 202.519 118.642C202.923 118.142 203.441 117.747 204.03 117.49C204.08 117.471 204.133 117.462 204.186 117.464C204.24 117.466 204.292 117.478 204.341 117.5C204.389 117.523 204.433 117.555 204.469 117.594C204.504 117.633 204.532 117.68 204.55 117.73C204.581 117.831 204.573 117.94 204.529 118.036C204.485 118.132 204.407 118.208 204.31 118.25C203.85 118.466 203.447 118.786 203.132 119.185C202.818 119.585 202.602 120.052 202.5 120.55C202.477 120.601 202.442 120.647 202.399 120.683C202.355 120.72 202.305 120.746 202.25 120.76Z" fill="white"/>
<path opacity="0.2" d="M208.67 133.71C208.67 133.71 209.4 134.44 210.38 133.32C210.38 133.32 211.77 135.49 213.22 130.68C213.22 130.68 217.1 131.46 218.16 130.68C218.89 130.15 218.16 129.19 218.16 129.19C218.16 129.19 219.75 129.03 220.16 127.85C220.16 127.85 221.42 132.56 214.16 131.67C214.14 131.67 211.81 136.75 208.67 133.71Z" fill="black"/>
<path d="M230.84 121.61C230.603 122.638 230.164 123.61 229.55 124.468C228.935 125.326 228.157 126.054 227.26 126.61C224.86 128.09 222.88 126.12 222.89 123.45C222.89 121.07 224.19 117.36 226.89 117C229.59 116.64 231.4 119.06 230.84 121.61Z" fill="#E4897B"/>
<path opacity="0.2" d="M212.06 122C212.06 122 212.44 123.92 214.74 123.32" stroke="black" stroke-width="0.5" stroke-linecap="round" stroke-linejoin="round"/>
<path opacity="0.2" d="M206.47 123.48C206.47 123.48 206.42 125.76 204.84 125.58" stroke="black" stroke-width="0.5" stroke-linecap="round" stroke-linejoin="round"/>
<path opacity="0.2" d="M203.62 116.19C205.912 114.914 208.522 114.324 211.14 114.49" stroke="black" stroke-width="0.5" stroke-linecap="round" stroke-linejoin="round"/>
<path opacity="0.2" d="M203.62 115C204.611 114.076 205.825 113.425 207.144 113.113C208.463 112.801 209.84 112.838 211.14 113.22" stroke="black" stroke-width="0.5" stroke-linecap="round" stroke-linejoin="round"/>
<path opacity="0.2" d="M204.58 112.88C205.549 112.154 206.681 111.678 207.878 111.493C209.074 111.308 210.297 111.421 211.44 111.82" stroke="black" stroke-width="0.5" stroke-linecap="round" stroke-linejoin="round"/>
<path d="M276.151 196.891L270.075 201.211C270.075 201.211 266.156 202.536 265.688 203.682C265.219 204.828 266.303 221.28 266.303 221.28C266.303 221.28 273.466 217.927 273.584 216.468C273.701 215.009 272.357 207.379 272.357 207.379L278.844 203.559L276.151 196.891Z" fill="#E4897B"/>
<path d="M257.278 126.182C257.278 126.182 299.514 138.593 311.304 160.403C323.093 182.212 286.477 201.215 286.477 201.215L282.998 190.501C282.998 190.501 298.342 180.58 295.602 170.972C292.861 161.364 269.024 156.851 269.024 156.851C269.024 156.851 248.054 142.239 257.278 126.182Z" fill="#407BFF"/>
<path opacity="0.4" d="M289.22 199.65C287.52 200.667 279 203.5 279 203.5L276 197C276 197 283.573 190.127 284.491 189.449C288.272 186.659 297.797 178.739 295.592 170.97C292.858 161.332 269.014 156.849 269.014 156.849C269.014 156.849 248.054 142.239 257.278 126.182C257.278 126.182 299.515 138.593 311.306 160.393C321.087 178.502 297.498 194.68 289.22 199.65Z" fill="black"/>
<path opacity="0.1" d="M289.229 199.652C287.53 200.67 286.477 201.215 286.477 201.215L282.998 190.501C282.998 190.501 283.582 190.129 284.5 189.451L289.229 199.652Z" fill="black"/>
<path d="M210.14 227.42H152.59C151.927 227.42 151.291 227.157 150.822 226.688C150.353 226.219 150.09 225.583 150.09 224.92C150.09 224.257 150.353 223.621 150.822 223.152C151.291 222.683 151.927 222.42 152.59 222.42H210.14C210.803 222.42 211.439 222.683 211.908 223.152C212.377 223.621 212.64 224.257 212.64 224.92C212.64 225.583 212.377 226.219 211.908 226.688C211.439 227.157 210.803 227.42 210.14 227.42V227.42Z" fill="#407BFF"/>
<g opacity="0.2">
<path opacity="0.2" d="M210.14 227.42H152.59C151.927 227.42 151.291 227.157 150.822 226.688C150.353 226.219 150.09 225.583 150.09 224.92C150.09 224.257 150.353 223.621 150.822 223.152C151.291 222.683 151.927 222.42 152.59 222.42H210.14C210.803 222.42 211.439 222.683 211.908 223.152C212.377 223.621 212.64 224.257 212.64 224.92C212.64 225.583 212.377 226.219 211.908 226.688C211.439 227.157 210.803 227.42 210.14 227.42V227.42Z" fill="white"/>
</g>
<path d="M205.14 303.37H147.59C146.927 303.37 146.291 303.107 145.822 302.638C145.353 302.169 145.09 301.533 145.09 300.87C145.09 300.207 145.353 299.571 145.822 299.102C146.291 298.633 146.927 298.37 147.59 298.37H205.14C205.803 298.37 206.439 298.633 206.908 299.102C207.377 299.571 207.64 300.207 207.64 300.87C207.64 301.533 207.377 302.169 206.908 302.638C206.439 303.107 205.803 303.37 205.14 303.37Z" fill="#407BFF"/>
<g opacity="0.2">
<path opacity="0.2" d="M205.14 303.37H147.59C146.927 303.37 146.291 303.107 145.822 302.638C145.353 302.169 145.09 301.533 145.09 300.87C145.09 300.207 145.353 299.571 145.822 299.102C146.291 298.633 146.927 298.37 147.59 298.37H205.14C205.803 298.37 206.439 298.633 206.908 299.102C207.377 299.571 207.64 300.207 207.64 300.87C207.64 301.533 207.377 302.169 206.908 302.638C206.439 303.107 205.803 303.37 205.14 303.37Z" fill="white"/>
</g>
<path d="M204.47 362.18L211.47 248.05H268.14L275.19 362.18H280.19L271.13 215.47C270.911 212.126 269.436 208.988 267.001 206.685C264.566 204.381 261.351 203.083 258 203.05H221.8C218.429 203.058 215.186 204.346 212.728 206.654C210.27 208.961 208.781 212.116 208.56 215.48L199.56 362.18H204.47ZM213.47 215.79C213.607 213.694 214.535 211.729 216.067 210.292C217.599 208.854 219.62 208.053 221.72 208.05H258C260.097 208.056 262.114 208.857 263.643 210.291C265.173 211.726 266.101 213.688 266.24 215.78L267.92 243.05H211.82L213.47 215.79Z" fill="#407BFF"/>
<path opacity="0.2" d="M204.47 362.18L211.47 248.05H268.14L275.19 362.18H280.19L271.13 215.47C270.911 212.126 269.436 208.988 267.001 206.685C264.566 204.381 261.351 203.083 258 203.05H221.8C218.429 203.058 215.186 204.346 212.728 206.654C210.27 208.961 208.781 212.116 208.56 215.48L199.56 362.18H204.47ZM213.47 215.79C213.607 213.694 214.535 211.729 216.067 210.292C217.599 208.854 219.62 208.053 221.72 208.05H258C260.097 208.056 262.114 208.857 263.643 210.291C265.173 211.726 266.101 213.688 266.24 215.78L267.92 243.05H211.82L213.47 215.79Z" fill="white"/>
<path d="M149.5 114L144 109" stroke="#B97964" stroke-linecap="round" stroke-linejoin="bevel"/>
<path d="M145 121.5L143 115.5" stroke="#B97964" stroke-linecap="round" stroke-linejoin="round"/>
<path d="M145.5 123C143.5 121.4 147 115.667 149 113L160.5 112.5L165.5 114C164.833 118.333 162.9 127.4 160.5 129C157.5 131 148 125 145.5 123Z" fill="#F4BCBA"/>
<path d="M227.944 111.731C228.071 111.486 227.976 111.184 227.731 111.056C227.486 110.929 227.184 111.024 227.056 111.269L227.944 111.731ZM221.444 124.231L227.944 111.731L227.056 111.269L220.556 123.769L221.444 124.231Z" fill="#407BFF"/>
<path d="M205 130L208 126C211.333 125 218.9 123.9 220.5 123.5C222.1 123.1 223.167 128.333 225 130.5C222 134 218.7 140.1 217.5 140.5C216.3 140.9 211 139.667 208.5 139L205 130Z" fill="#6C94EF"/>
</svg>
